<?xml version="1.0" standalone="no"?><!DOCTYPE svg PUBLIC "-//W3C//DTD SVG 1.1//EN" "http://www.w3.org/Graphics/SVG/1.1/DTD/svg11.dtd"><svg t="1668407824974" class="icon" viewBox="0 0 1024 1024" version="1.1" xmlns="http://www.w3.org/2000/svg" p-id="4194" xmlns:xlink="http://www.w3.org/1999/xlink" width="200" height="200"><path d="M513.024 444.64128c-54.9888 0-99.71712-44.72832-99.71712-99.71712s44.72832-99.71712 99.71712-99.71712 99.71712 44.72832 99.71712 99.71712-44.72832 99.71712-99.71712 99.71712z m0-135.8848c-19.94752 0-36.16768 16.22016-36.16768 36.16768s16.22016 36.16768 36.16768 36.16768 36.16768-16.22016 36.16768-36.16768c-0.02048-19.94752-16.24064-36.16768-36.16768-36.16768zM513.024 980.31616c-17.55136 0-31.78496-14.2336-31.78496-31.78496v-173.17888c0-17.55136 14.2336-31.78496 31.78496-31.78496s31.78496 14.2336 31.78496 31.78496v173.17888c0 17.57184-14.2336 31.78496-31.78496 31.78496zM633.50784 861.94176c-17.55136 0-31.78496-14.2336-31.78496-31.78496v-54.80448c0-17.55136 14.2336-31.78496 31.78496-31.78496s31.78496 14.2336 31.78496 31.78496v54.80448c0 17.57184-14.2336 31.78496-31.78496 31.78496zM392.54016 904.82688c-17.55136 0-31.78496-14.2336-31.78496-31.78496v-97.6896c0-17.55136 14.2336-31.78496 31.78496-31.78496s31.78496 14.2336 31.78496 31.78496v97.6896c-0.02048 17.55136-14.2336 31.78496-31.78496 31.78496z" p-id="4195"></path><path d="M635.43296 701.89056H390.59456c-33.42336 0-63.71328-17.96096-79.6672-46.51008-20.6848 9.27744-39.97696 20.76672-57.42592 34.2016a59.111424 59.111424 0 0 1-59.57632 7.39328 59.14624 59.14624 0 0 1-35.36896-48.49664c-12.65664-129.86368 61.82912-191.77472 109.75232-217.8048 6.4512-133.55008 67.1744-259.33824 168.48896-347.648 43.43808-37.86752 108.9536-37.86752 152.39168 0 101.31456 88.30976 162.03776 214.09792 168.48896 347.648 47.9232 26.03008 122.40896 87.94112 109.75232 217.8048a59.107328 59.107328 0 0 1-35.36896 48.49664 59.158528 59.158528 0 0 1-59.57632-7.39328c-17.44896-13.43488-36.74112-24.92416-57.42592-34.2016-15.91296 28.54912-46.20288 46.51008-79.62624 46.51008z m-319.5904-113.13152c20.74624 0 40.52992 12.22656 49.0496 32.41984l0.22528 0.53248c4.28032 10.11712 14.27456 16.62976 25.47712 16.62976h244.8384c11.20256 0 21.1968-6.53312 25.47712-16.65024l0.22528-0.512c11.264-26.68544 42.20928-39.46496 68.99712-28.50816 26.8288 10.97728 51.9168 24.9856 74.71104 41.69728 2.74432-42.92608-6.9632-79.03232-28.91776-107.39712-19.39456-25.06752-44.4416-39.40352-62.03392-47.0016l-19.02592-8.21248-0.16384-20.72576c-0.96256-122.69568-54.64064-239.37024-147.2512-320.08192-19.61984-17.1008-49.23392-17.1008-68.87424 0-92.61056 80.73216-146.28864 197.38624-147.2512 320.08192l-0.16384 20.70528-19.02592 8.21248c-17.59232 7.59808-42.63936 21.9136-62.03392 47.0016-21.95456 28.3648-31.66208 64.45056-28.91776 107.39712 22.77376-16.6912 47.88224-30.69952 74.71104-41.69728 6.51264-2.64192 13.27104-3.8912 19.94752-3.8912z" p-id="4196"></path></svg>